<svg id="Layer_1" data-name="Layer 1" xmlns="http://www.w3.org/2000/svg" viewBox="0 0 259.49 141.28"><defs><style>.cls-1{fill:#a6ce39;}.cls-2{fill:#262262;}.cls-3{fill:#27aae1;}.cls-4{fill:#00aeef;}.cls-5{fill:#231f20;}.cls-6{fill:#fff;}</style></defs><title>Alloy Wordmark</title><circle class="cls-1" cx="43.19" cy="72.9" r="43.19"/><path class="cls-2" d="M92.88,77.78C88.34,81,78.49,67.07,82.53,64.21l30.63-23.37,10.36,13.57Z" transform="translate(-14.61 -19.67)"/><circle class="cls-3" cx="102.81" cy="27.71" r="27.71"/><path class="cls-2" d="M129.81,61.21c-4.78-2.81,3.78-17.54,8.06-15.05l34,18.18-8.06,15.05Z" transform="translate(-14.61 -19.67)"/><circle class="cls-1" cx="167.19" cy="51.4" r="43.19"/><path class="cls-2" d="M200.65,86.83c-4.78-2.81,3.78-17.54,8.06-15.05l34,18.18L234.62,105Z" transform="translate(-14.61 -19.67)"/><path class="cls-2" d="M155.45,94.9c2.54-4.93,17.73,2.79,15.48,7.19L154.7,137l-15.48-7.19Z" transform="translate(-14.61 -19.67)"/><circle class="cls-3" cx="147.88" cy="133.24" r="27.71" transform="translate(-59.63 64.46) rotate(-27.73)"/><circle class="cls-4" cx="246.39" cy="102.7" r="27.71" transform="translate(60.58 287.84) rotate(-72.73)"/><path class="cls-5" d="M52.13,122.13h-.29a44,44,0,0,1-8.93-.86,20,20,0,0,1-7.42-3.1,15.65,15.65,0,0,1-5.11-5.9A20.37,20.37,0,0,1,28.51,103,12.56,12.56,0,0,1,31,95.27a22.66,22.66,0,0,1,6.19-5.69,39.46,39.46,0,0,1,7.71-3.75A36.52,36.52,0,0,1,52.13,84a56.35,56.35,0,0,1,6.27-.5,55.73,55.73,0,0,0,6.26-.5V79.07a10.76,10.76,0,0,0-.72-3.89,6.24,6.24,0,0,0-2.66-3.67,8.71,8.71,0,0,0-4.46-1.3,18.55,18.55,0,0,0-5.26.65A16.25,16.25,0,0,0,46.66,73a22.64,22.64,0,0,0-4.54,4q-1.94,2.23-3.82,4.54a10.1,10.1,0,0,1-4-2.52,14.06,14.06,0,0,0-3.89-2.81A29.66,29.66,0,0,1,35,68.41a41.1,41.1,0,0,1,6.84-6.7A32.46,32.46,0,0,1,50.18,57a23.25,23.25,0,0,1,9.07-1.58,20.5,20.5,0,0,1,8.93,2.45,23,23,0,0,1,8,7.49,23.51,23.51,0,0,1,3.74,9.43,75,75,0,0,1,1.15,11.59q.14,6-.22,11.88t-.5,10.3l-.58.58.43-1q0,3.31-.22,6.41T79.78,121v1.3q-2.45.29-5,.65a36.39,36.39,0,0,1-5.11.36,9.35,9.35,0,0,0-1.8-2.3,9.28,9.28,0,0,1-1.8-2.3q-3.31,1-6.62,2.09A25.92,25.92,0,0,1,52.42,122Zm25.35-14.69q.14-4,.5-9.58t.22-11.23a71.55,71.55,0,0,0-1.08-10.87,22.77,22.77,0,0,0-3.24-8.64,18.39,18.39,0,0,0-9.79-7.49,22.11,22.11,0,0,0-11.59-.36,26.39,26.39,0,0,0-10.87,5.54A27.06,27.06,0,0,0,34,74.89a14.78,14.78,0,0,1,1.8,1.51,13.94,13.94,0,0,0,1.8,1.51A51.31,51.31,0,0,1,41,74a23.82,23.82,0,0,1,4-3.31,21,21,0,0,1,5.4-2.45,20.25,20.25,0,0,1,6.48-.94,12.73,12.73,0,0,1,6,1.66,8.73,8.73,0,0,1,4,5.33,19.72,19.72,0,0,1,.65,5.54q-.07,2.81.07,5.54a39.48,39.48,0,0,1-7.49.72,38.88,38.88,0,0,0-7.34.72,45.54,45.54,0,0,0-7.06,1.87A32.78,32.78,0,0,0,38.73,92a20.14,20.14,0,0,0-5.26,4.75A9.94,9.94,0,0,0,31.39,103a18.72,18.72,0,0,0,1.44,7.78,12.14,12.14,0,0,0,4.1,5,15.6,15.6,0,0,0,6.41,2.52,48.28,48.28,0,0,0,8.21.65l.29.14h.29a24.22,24.22,0,0,0,8.21-1.44q4-1.44,7.92-2.45a6.83,6.83,0,0,0,.43,1.94,4.54,4.54,0,0,0,.65,1.08,3.63,3.63,0,0,0,.79.72,6.44,6.44,0,0,1,1.15,1.15q1.44-.14,2.81-.36t2.81-.36q.14-2.59.29-5.47t.14-5.76v-.58ZM55.44,93A33.42,33.42,0,0,1,60,92.17a21.23,21.23,0,0,1,4.61-.07,8.55,8.55,0,0,1,3.82,1.22V94q0,2.88.07,5.62a25.39,25.39,0,0,1-.5,5.62,3.88,3.88,0,0,1-2.16,2.16A17.16,17.16,0,0,1,61.2,109a42.87,42.87,0,0,1-5.9.79,30.56,30.56,0,0,1-6-.14,19.12,19.12,0,0,1-4.9-1.22,4.32,4.32,0,0,1-2.67-2.59,5.66,5.66,0,0,1-.07-4.25,9.48,9.48,0,0,1,2.45-3.46A15.05,15.05,0,0,1,48,95.63,37.48,37.48,0,0,1,51.84,94Q53.28,93.61,55.44,93ZM50,97.79a15.37,15.37,0,0,0-3.1,1.8,9.24,9.24,0,0,0-2.3,2.45,3.2,3.2,0,0,0-.29,3q.57,1.44,3.89,1.8a41.8,41.8,0,0,0,7,.14,44.43,44.43,0,0,0,6.7-.86q3-.65,3.17-1.37a18.6,18.6,0,0,0,.5-4.82q-.07-2.38-.07-4.82A15.54,15.54,0,0,0,60.41,95a32.51,32.51,0,0,0-7.56,1.8A18.88,18.88,0,0,0,50,97.79Z" transform="translate(-14.61 -19.67)"/><path class="cls-6" d="M77.48,107.44q.14-4,.5-9.58t.22-11.23a71.55,71.55,0,0,0-1.08-10.87,22.77,22.77,0,0,0-3.24-8.64,18.39,18.39,0,0,0-9.79-7.49,22.11,22.11,0,0,0-11.59-.36,26.39,26.39,0,0,0-10.87,5.54A27.06,27.06,0,0,0,34,74.89a14.78,14.78,0,0,1,1.8,1.51,13.94,13.94,0,0,0,1.8,1.51A51.31,51.31,0,0,1,41,74a23.82,23.82,0,0,1,4-3.31,21,21,0,0,1,5.4-2.45,20.25,20.25,0,0,1,6.48-.94,12.73,12.73,0,0,1,6,1.66,8.73,8.73,0,0,1,4,5.33,19.72,19.72,0,0,1,.65,5.54q-.07,2.81.07,5.54a39.48,39.48,0,0,1-7.49.72,38.88,38.88,0,0,0-7.34.72,45.54,45.54,0,0,0-7.06,1.87A32.78,32.78,0,0,0,38.73,92a20.14,20.14,0,0,0-5.26,4.75A9.94,9.94,0,0,0,31.39,103a18.72,18.72,0,0,0,1.44,7.78,12.14,12.14,0,0,0,4.1,5,15.6,15.6,0,0,0,6.41,2.52,48.28,48.28,0,0,0,8.21.65l.29.14h.29a24.22,24.22,0,0,0,8.21-1.44q4-1.44,7.92-2.45a6.83,6.83,0,0,0,.43,1.94,4.54,4.54,0,0,0,.65,1.08,3.63,3.63,0,0,0,.79.72,6.44,6.44,0,0,1,1.15,1.15q1.44-.14,2.81-.36t2.81-.36q.14-2.59.29-5.47t.14-5.76v-.58ZM55.44,93A33.42,33.42,0,0,1,60,92.17a21.23,21.23,0,0,1,4.61-.07,8.55,8.55,0,0,1,3.82,1.22V94q0,2.88.07,5.62a25.39,25.39,0,0,1-.5,5.62,3.88,3.88,0,0,1-2.16,2.16A17.16,17.16,0,0,1,61.2,109a42.87,42.87,0,0,1-5.9.79,30.56,30.56,0,0,1-6-.14,19.12,19.12,0,0,1-4.9-1.22,4.32,4.32,0,0,1-2.67-2.59,5.66,5.66,0,0,1-.07-4.25,9.48,9.48,0,0,1,2.45-3.46A15.05,15.05,0,0,1,48,95.63,37.48,37.48,0,0,1,51.84,94Q53.28,93.61,55.44,93Z" transform="translate(-14.61 -19.67)"/><path class="cls-5" d="M88,94.52c-.14-5.81-.17,1.91-.07-3.94q.14-12.24.43-23.83A229.79,229.79,0,0,1,90.19,42.9l4.9-2.16a40.05,40.05,0,0,1,4-.07,5.5,5.5,0,0,1,3.6,2.09,14.64,14.64,0,0,1,.86,4.9q0,11.67-.22,23.4t-.22,23.4c0,6.62,0-.35.14,6.18s.14,13.11.14,19.73a9,9,0,0,1-.72,4.18,3.55,3.55,0,0,1-2,1.73,6.58,6.58,0,0,1-3,.22q-1.66-.22-3.53-.5t-3.17-.43a4.46,4.46,0,0,1-2.74-2,46.4,46.4,0,0,1-.5-5.76q-.07-2.88.07-5.76Q88.17,103.23,88,94.52Zm2.74,22.68q.07,2.59.36,5.18a3.25,3.25,0,0,0,1.51.5q1.22.22,2.67.43c1,.14,1.87.24,2.74.29l1.58.07a2,2,0,0,0,.65-.65,5.79,5.79,0,0,0,.36-2.66q0-9.94-.14-19.73c-.1-6.53-.14.45-.14-6.18q0-11.67.22-23.4t.22-23.4a8.24,8.24,0,0,0-.58-3.31A2.93,2.93,0,0,0,98,43.48a18.89,18.89,0,0,0-2.3.14l-2.88,1.3a213,213,0,0,0-1.66,22.75q-.22,11.38-.36,22.9c-.1,5.86-.07-1.86.07,3.94s.12,11.64-.07,17.5Q90.62,114.61,90.69,117.2Z" transform="translate(-14.61 -19.67)"/><path class="cls-6" d="M90.69,117.2q.07,2.59.36,5.18a3.25,3.25,0,0,0,1.51.5q1.22.22,2.67.43c1,.14,1.87.24,2.74.29l1.58.07a2,2,0,0,0,.65-.65,5.79,5.79,0,0,0,.36-2.66q0-9.94-.14-19.73c-.1-6.53-.14.45-.14-6.18q0-11.67.22-23.4t.22-23.4a8.24,8.24,0,0,0-.58-3.31A2.93,2.93,0,0,0,98,43.48a18.89,18.89,0,0,0-2.3.14l-2.88,1.3a213,213,0,0,0-1.66,22.75q-.22,11.38-.36,22.9c-.1,5.86-.07-1.86.07,3.94s.12,11.64-.07,17.5Q90.62,114.61,90.69,117.2Z" transform="translate(-14.61 -19.67)"/><path class="cls-5" d="M109.58,108.07q-.22-8.71-.07-17.5.14-12.24.43-23.83a229.79,229.79,0,0,1,1.87-23.83l4.9-2.16a40.05,40.05,0,0,1,4-.07,5.5,5.5,0,0,1,3.6,2.09,14.64,14.64,0,0,1,.86,4.9q0,11.67-.22,23.4t-.22,23.4q0,9.94.14,19.73t.14,19.73a9,9,0,0,1-.72,4.18,3.55,3.55,0,0,1-2,1.73,6.58,6.58,0,0,1-3,.22q-1.66-.22-3.53-.5t-3.17-.43a4.46,4.46,0,0,1-2.74-2,46.4,46.4,0,0,1-.5-5.76q-.07-2.88.07-5.76Q109.8,116.79,109.58,108.07Zm2.74,22.68q.07,2.59.36,5.18a3.25,3.25,0,0,0,1.51.5q1.22.22,2.67.43c1,.14,1.87.24,2.74.29l1.58.07a2,2,0,0,0,.65-.65,5.79,5.79,0,0,0,.36-2.66q0-9.94-.14-19.73t-.14-19.73q0-11.67.22-23.4t.22-23.4a8.24,8.24,0,0,0-.58-3.31,2.93,2.93,0,0,0-2.16-.86,18.89,18.89,0,0,0-2.3.14l-2.88,1.3a213,213,0,0,0-1.66,22.75q-.22,11.38-.36,22.9-.15,8.79.07,17.5t-.07,17.5Q112.24,128.16,112.32,130.76Z" transform="translate(-14.61 -19.67)"/><path class="cls-6" d="M112.32,130.76q.07,2.59.36,5.18a3.25,3.25,0,0,0,1.51.5q1.22.22,2.67.43c1,.14,1.87.24,2.74.29l1.58.07a2,2,0,0,0,.65-.65,5.79,5.79,0,0,0,.36-2.66q0-9.94-.14-19.73t-.14-19.73q0-11.67.22-23.4t.22-23.4a8.24,8.24,0,0,0-.58-3.31,2.93,2.93,0,0,0-2.16-.86,18.89,18.89,0,0,0-2.3.14l-2.88,1.3a213,213,0,0,0-1.66,22.75q-.22,11.38-.36,22.9-.15,8.79.07,17.5t-.07,17.5Q112.24,128.16,112.32,130.76Z" transform="translate(-14.61 -19.67)"/><path class="cls-5" d="M188.19,107.69a34.41,34.41,0,0,1-6.91,10.87,33.14,33.14,0,0,1-10.73,7.56,31,31,0,0,1-14.47,2.38,24.56,24.56,0,0,1-6.91-1.44q-9.65-3.31-14.62-9.29a27.53,27.53,0,0,1-6.19-13,32.39,32.39,0,0,1,.86-14.47,43,43,0,0,1,6.48-13.54,39,39,0,0,1,10.66-10.15,27.58,27.58,0,0,1,13.46-4.46,32.29,32.29,0,0,1,14.62,2.23,25.59,25.59,0,0,1,9.94,7.42,29.41,29.41,0,0,1,5.47,10.95,38.15,38.15,0,0,1,1.22,12.53A40.85,40.85,0,0,1,188.19,107.69Zm-1.08-24.12a26.23,26.23,0,0,0-5-9.87,23.75,23.75,0,0,0-9-6.7,28,28,0,0,0-13-2,24.13,24.13,0,0,0-12.24,4,36.33,36.33,0,0,0-9.79,9.36,40,40,0,0,0-6,12.38,30.5,30.5,0,0,0-.94,13.25,24.68,24.68,0,0,0,5.47,12q4.46,5.48,13.39,8.5a25.46,25.46,0,0,0,6,1.15,30.52,30.52,0,0,0,13.25-2.16,29.16,29.16,0,0,0,9.87-6.77,30.63,30.63,0,0,0,6.34-10,39.44,39.44,0,0,0,2.66-11.59A34.34,34.34,0,0,0,187.11,83.57Zm-40-3.17a21.4,21.4,0,0,1,7.78-5.54,18.21,18.21,0,0,1,16.27,1.37,16.44,16.44,0,0,1,5.62,6,18,18,0,0,1,2.16,9,22.25,22.25,0,0,1-2.88,11.23,26.85,26.85,0,0,1-7.2,8.28,24.58,24.58,0,0,1-9.43,4.39,17.31,17.31,0,0,1-9.43-.29,13.78,13.78,0,0,1-7.2-5.83q-2.88-4.39-2.88-12.31a11.26,11.26,0,0,1,.43-3.1,30.44,30.44,0,0,1,1-3A28.24,28.24,0,0,1,147.14,80.4Zm-3.89,13.68a8.16,8.16,0,0,0-.43,2.59q0,7.06,2.45,10.8a11.3,11.3,0,0,0,6.19,4.9,13.74,13.74,0,0,0,8-.07,23.23,23.23,0,0,0,8-4.18,24.27,24.27,0,0,0,6.19-7.34,19.36,19.36,0,0,0,2.45-9.58,14.34,14.34,0,0,0-1.8-7.2,15,15,0,0,0-4.68-5.11,15.21,15.21,0,0,0-6.48-2.45,14.39,14.39,0,0,0-7.2.86,17.9,17.9,0,0,0-6.77,4.82A26.24,26.24,0,0,0,144,91.49,26.36,26.36,0,0,1,143.25,94.08Z" transform="translate(-14.61 -19.67)"/><path class="cls-6" d="M187.11,83.57a26.23,26.23,0,0,0-5-9.87,23.75,23.75,0,0,0-9-6.7,28,28,0,0,0-13-2,24.13,24.13,0,0,0-12.24,4,36.33,36.33,0,0,0-9.79,9.36,40,40,0,0,0-6,12.38,30.5,30.5,0,0,0-.94,13.25,24.68,24.68,0,0,0,5.47,12q4.46,5.48,13.39,8.5a25.46,25.46,0,0,0,6,1.15,30.52,30.52,0,0,0,13.25-2.16,29.16,29.16,0,0,0,9.87-6.77,30.63,30.63,0,0,0,6.34-10,39.44,39.44,0,0,0,2.66-11.59A34.34,34.34,0,0,0,187.11,83.57Zm-40-3.17a21.4,21.4,0,0,1,7.78-5.54,18.21,18.21,0,0,1,16.27,1.37,16.44,16.44,0,0,1,5.62,6,18,18,0,0,1,2.16,9,22.25,22.25,0,0,1-2.88,11.23,26.85,26.85,0,0,1-7.2,8.28,24.58,24.58,0,0,1-9.43,4.39,17.31,17.31,0,0,1-9.43-.29,13.78,13.78,0,0,1-7.2-5.83q-2.88-4.39-2.88-12.31a11.26,11.26,0,0,1,.43-3.1,30.44,30.44,0,0,1,1-3A28.24,28.24,0,0,1,147.14,80.4Z" transform="translate(-14.61 -19.67)"/><path class="cls-5" d="M193,81.42q-3.1-6.41-6-13.32t-5.11-13.61a66,66,0,0,1-3-12.17q.86-.14,3-.65t4.46-1.08a32,32,0,0,1,4.32-.79,4.88,4.88,0,0,1,2.74.22,4.23,4.23,0,0,1,1.08,2q.5,1.59,1,3.38t.86,3.53q.36,1.73.5,2.3a115.24,115.24,0,0,0,4.46,14.19,104.47,104.47,0,0,0,6.34,13.75q4.46-10.08,8.28-20.45t8.28-20.45a17.37,17.37,0,0,1,4-1.37,14.6,14.6,0,0,1,4.54-.29,8.52,8.52,0,0,1,4,1.37,5.61,5.61,0,0,1,2.3,3.46,94.79,94.79,0,0,1-5,12.89q-2.88,6-5.76,12.46Q223,79.33,217.93,91.86a183.16,183.16,0,0,1-12,24.19q-1.15,2-2.74,4.83t-3.31,5.76a62.56,62.56,0,0,1-3.53,5.4,13.67,13.67,0,0,1-3.67,3.6h-.43a7.62,7.62,0,0,1-5.26-1.73q-1.94-1.73-4-3.74l-1.87-4.9a34.11,34.11,0,0,0,5.4-6q2.81-3.82,5.4-8.06t4.68-8.5a55.46,55.46,0,0,0,3.1-7.42q-.29-.72-.5-1.3t-.5-1.3Q196.11,87.83,193,81.42Zm-6-37.88q-2.38.65-4.82,1.22a77.2,77.2,0,0,0,3.24,11.38q2.23,6.19,4.9,12.46t5.62,12.17q3,5.91,5.4,10.66.43,1,.79,1.94t.65,1.94a59.3,59.3,0,0,1-3,7.63,94.94,94.94,0,0,1-4.61,8.64q-2.59,4.32-5.33,8.28a39.53,39.53,0,0,1-5.18,6.26l1,2.3q1.3,1.44,2.74,2.81a5.43,5.43,0,0,0,3.46,1.51,15.84,15.84,0,0,0,3-3.38q1.65-2.38,3.24-5.11t3-5.4l2.3-4.25a171,171,0,0,0,12.1-24.05q5-12.38,10.37-24.92,2.59-6,5.47-12a105.76,105.76,0,0,0,5-12.24A2.66,2.66,0,0,0,234.56,40a9.08,9.08,0,0,0-2.88-.43,13.63,13.63,0,0,0-2.81.29,21.3,21.3,0,0,0-2.23.58q-5,11.23-9.29,22.54t-9.29,22.4a107.82,107.82,0,0,1-9.22-19,195.45,195.45,0,0,1-6-20q-.29-1-.5-1.94t-.5-1.8A33.15,33.15,0,0,0,187,43.54Z" transform="translate(-14.61 -19.67)"/><path class="cls-6" d="M187,43.54q-2.38.65-4.82,1.22a77.2,77.2,0,0,0,3.24,11.38q2.23,6.19,4.9,12.46t5.62,12.17q3,5.91,5.4,10.66.43,1,.79,1.94t.65,1.94a59.3,59.3,0,0,1-3,7.63,94.94,94.94,0,0,1-4.61,8.64q-2.59,4.32-5.33,8.28a39.53,39.53,0,0,1-5.18,6.26l1,2.3q1.3,1.44,2.74,2.81a5.43,5.43,0,0,0,3.46,1.51,15.84,15.84,0,0,0,3-3.38q1.65-2.38,3.24-5.11t3-5.4l2.3-4.25a171,171,0,0,0,12.1-24.05q5-12.38,10.37-24.92,2.59-6,5.47-12a105.76,105.76,0,0,0,5-12.24A2.66,2.66,0,0,0,234.56,40a9.08,9.08,0,0,0-2.88-.43,13.63,13.63,0,0,0-2.81.29,21.3,21.3,0,0,0-2.23.58q-5,11.23-9.29,22.54t-9.29,22.4a107.82,107.82,0,0,1-9.22-19,195.45,195.45,0,0,1-6-20q-.29-1-.5-1.94t-.5-1.8A33.15,33.15,0,0,0,187,43.54Z" transform="translate(-14.61 -19.67)"/></svg>