<svg id="Layer_1" data-name="Layer 1" xmlns="http://www.w3.org/2000/svg" viewBox="0 0 133.52 119.09"><defs><style>.cls-1,.cls-3,.cls-5{fill:#fff;}.cls-1{stroke:#a6ce39;}.cls-1,.cls-3{stroke-miterlimit:10;stroke-width:3px;}.cls-2{fill:#262262;}.cls-3{stroke:#27aae1;}.cls-4{fill:#231f20;}</style></defs><title>Alloy Icon</title><circle class="cls-1" cx="44.69" cy="74.4" r="43.19"/><path class="cls-2" d="M104,90.53C99.44,93.71,89.58,79.82,93.62,77l30.63-23.37,10.36,13.57Z" transform="translate(-24.21 -30.92)"/><circle class="cls-3" cx="104.31" cy="29.21" r="27.71"/><path class="cls-4" d="M63.23,134.88h-.29A44,44,0,0,1,54,134a20,20,0,0,1-7.42-3.1,15.65,15.65,0,0,1-5.11-5.9,20.37,20.37,0,0,1-1.87-9.29A12.56,12.56,0,0,1,42.13,108a22.66,22.66,0,0,1,6.19-5.69A39.46,39.46,0,0,1,56,98.59a36.52,36.52,0,0,1,7.2-1.87,56.35,56.35,0,0,1,6.27-.5,55.73,55.73,0,0,0,6.26-.5V91.82A10.76,10.76,0,0,0,75,87.93a6.24,6.24,0,0,0-2.66-3.67A8.71,8.71,0,0,0,67.91,83a18.55,18.55,0,0,0-5.26.65,16.25,16.25,0,0,0-4.9,2.16,22.64,22.64,0,0,0-4.54,4Q51.27,92,49.4,94.27a10.1,10.1,0,0,1-4-2.52,14.06,14.06,0,0,0-3.89-2.81,29.66,29.66,0,0,1,4.61-7.78,41.1,41.1,0,0,1,6.84-6.7,32.46,32.46,0,0,1,8.35-4.68,23.25,23.25,0,0,1,9.07-1.58,20.5,20.5,0,0,1,8.93,2.45,23,23,0,0,1,8,7.49A23.51,23.51,0,0,1,91,87.57a75,75,0,0,1,1.15,11.59q.14,6-.22,11.88t-.5,10.3l-.58.58.43-1q0,3.31-.22,6.41t-.22,6.41V135q-2.45.29-5,.65a36.39,36.39,0,0,1-5.11.36,9.35,9.35,0,0,0-1.8-2.3,9.28,9.28,0,0,1-1.8-2.3q-3.31,1-6.62,2.09a25.92,25.92,0,0,1-7.06,1.22Zm25.35-14.69q.14-4,.5-9.58t.22-11.23A71.55,71.55,0,0,0,88.21,88.5,22.77,22.77,0,0,0,85,79.86a18.39,18.39,0,0,0-9.79-7.49A22.11,22.11,0,0,0,63.59,72a26.39,26.39,0,0,0-10.87,5.54,27.06,27.06,0,0,0-7.63,10.08,14.78,14.78,0,0,1,1.8,1.51,13.94,13.94,0,0,0,1.8,1.51,51.31,51.31,0,0,1,3.38-3.89,23.82,23.82,0,0,1,4-3.31A21,21,0,0,1,61.43,81a20.25,20.25,0,0,1,6.48-.94,12.73,12.73,0,0,1,6,1.66,8.73,8.73,0,0,1,4,5.33,19.72,19.72,0,0,1,.65,5.54q-.07,2.81.07,5.54a39.48,39.48,0,0,1-7.49.72,38.88,38.88,0,0,0-7.34.72,45.54,45.54,0,0,0-7.06,1.87,32.78,32.78,0,0,0-6.91,3.31,20.14,20.14,0,0,0-5.26,4.75,9.94,9.94,0,0,0-2.09,6.19,18.72,18.72,0,0,0,1.44,7.78,12.14,12.14,0,0,0,4.1,5,15.6,15.6,0,0,0,6.41,2.52,48.28,48.28,0,0,0,8.21.65l.29.14h.29a24.22,24.22,0,0,0,8.21-1.44q4-1.44,7.92-2.45a6.83,6.83,0,0,0,.43,1.94,4.54,4.54,0,0,0,.65,1.08,3.63,3.63,0,0,0,.79.72,6.44,6.44,0,0,1,1.15,1.15q1.44-.14,2.81-.36t2.81-.36q.14-2.59.29-5.47t.14-5.76v-.58Zm-22-14.4a33.42,33.42,0,0,1,4.54-.86,21.23,21.23,0,0,1,4.61-.07,8.55,8.55,0,0,1,3.82,1.22v.72q0,2.88.07,5.62a25.39,25.39,0,0,1-.5,5.62,3.88,3.88,0,0,1-2.16,2.16,17.16,17.16,0,0,1-4.61,1.58,42.87,42.87,0,0,1-5.9.79,30.56,30.56,0,0,1-6-.14,19.12,19.12,0,0,1-4.9-1.22,4.32,4.32,0,0,1-2.67-2.59,5.66,5.66,0,0,1-.07-4.25,9.48,9.48,0,0,1,2.45-3.46A15.05,15.05,0,0,1,59,108.38a37.48,37.48,0,0,1,3.89-1.58Q64.38,106.36,66.54,105.79Zm-5.4,4.75a15.37,15.37,0,0,0-3.1,1.8,9.24,9.24,0,0,0-2.3,2.45,3.2,3.2,0,0,0-.29,3q.57,1.44,3.89,1.8a41.8,41.8,0,0,0,7,.14,44.43,44.43,0,0,0,6.7-.86q3-.65,3.17-1.37a18.6,18.6,0,0,0,.5-4.82q-.07-2.38-.07-4.82a15.54,15.54,0,0,0-5.11-.07,32.51,32.51,0,0,0-7.56,1.8A18.88,18.88,0,0,0,61.14,110.54Z" transform="translate(-24.21 -30.92)"/><path class="cls-5" d="M88.57,120.19q.14-4,.5-9.58t.22-11.23A71.55,71.55,0,0,0,88.21,88.5,22.77,22.77,0,0,0,85,79.86a18.39,18.39,0,0,0-9.79-7.49A22.11,22.11,0,0,0,63.59,72a26.39,26.39,0,0,0-10.87,5.54,27.06,27.06,0,0,0-7.63,10.08,14.78,14.78,0,0,1,1.8,1.51,13.94,13.94,0,0,0,1.8,1.51,51.31,51.31,0,0,1,3.38-3.89,23.82,23.82,0,0,1,4-3.31A21,21,0,0,1,61.43,81a20.25,20.25,0,0,1,6.48-.94,12.73,12.73,0,0,1,6,1.66,8.73,8.73,0,0,1,4,5.33,19.72,19.72,0,0,1,.65,5.54q-.07,2.81.07,5.54a39.48,39.48,0,0,1-7.49.72,38.88,38.88,0,0,0-7.34.72,45.54,45.54,0,0,0-7.06,1.87,32.78,32.78,0,0,0-6.91,3.31,20.14,20.14,0,0,0-5.26,4.75,9.94,9.94,0,0,0-2.09,6.19,18.72,18.72,0,0,0,1.44,7.78,12.14,12.14,0,0,0,4.1,5,15.6,15.6,0,0,0,6.41,2.52,48.28,48.28,0,0,0,8.21.65l.29.14h.29a24.22,24.22,0,0,0,8.21-1.44q4-1.44,7.92-2.45a6.83,6.83,0,0,0,.43,1.94,4.54,4.54,0,0,0,.65,1.08,3.63,3.63,0,0,0,.79.72,6.44,6.44,0,0,1,1.15,1.15q1.44-.14,2.81-.36t2.81-.36q.14-2.59.29-5.47t.14-5.76v-.58Zm-22-14.4a33.42,33.42,0,0,1,4.54-.86,21.23,21.23,0,0,1,4.61-.07,8.55,8.55,0,0,1,3.82,1.22v.72q0,2.88.07,5.62a25.39,25.39,0,0,1-.5,5.62,3.88,3.88,0,0,1-2.16,2.16,17.16,17.16,0,0,1-4.61,1.58,42.87,42.87,0,0,1-5.9.79,30.56,30.56,0,0,1-6-.14,19.12,19.12,0,0,1-4.9-1.22,4.32,4.32,0,0,1-2.67-2.59,5.66,5.66,0,0,1-.07-4.25,9.48,9.48,0,0,1,2.45-3.46A15.05,15.05,0,0,1,59,108.38a37.48,37.48,0,0,1,3.89-1.58Q64.38,106.36,66.54,105.79Z" transform="translate(-24.21 -30.92)"/></svg>